:SAMPLES-PER-SECOND 30
:FRAME-RANGE 1-1770
:FULLY-SPECIFIED
:DEGREES
664
root  -41.9709 38.6594 -27.4172 4.63576 -2.26491 3.19518
RightUpLeg  -23.33 -1.32214 -5.34976
RightLeg  64.8059 -4.19096 -10.244
RightFoot  -5.70009 -0.5463 10.2721
RightToes  -1.33073e-015 0 -3.6325e-017
Spine  -2.93027 -0.7986 -9.88555
Spine1  6.99832 -0.665405 -1.78137
HEad  18.6816 5.8286 12.8666
LeftShoulder1  2.07735 -5.39861 -17.4822
LeftArm  -4.82711 9.53219 -58.4791
LeftForeArm  35.5277 0.517088 -12.206
LeftHand  0.078178 6.49532 10.5237
RightShoulder  0.945637 -0.894584 33.2145
RightArm  -19.3287 4.82553 45.6219
RightForeArm  66.6478 -3.31308 6.82455
RightHand  -0.0559677 -5.07413 -15.4626
LeftUpLeg  -16.9648 -0.0781141 -5.13962
LeftLeg  25.4779 4.7479 2.8527
LeftFoot  -13.7536 0.0805742 -0.092603
LeftToes  1.09107e-011 -1.16422e-010 2.98337e-011
665
root  -42.18 38.4528 -26.095 6.06386 -0.987671 3.13187
RightUpLeg  -26.903 -3.03107 -5.29319
RightLeg  62.5796 -5.93158 -12.759
RightFoot  -9.1209 -0.247987 9.56861
RightToes  -1.33073e-015 0 -3.6325e-017
Spine  -3.19066 -2.19064 -14.9097
Spine1  8.68455 -3.14335 3.54249
HEad  13.1736 5.79561 19.0751
LeftShoulder1  2.37439 -8.22698 -13.8988
LeftArm  -1.29564 6.81691 -63.012
LeftForeArm  38.7661 -0.274454 -13.248
LeftHand  0.0311657 6.14436 8.39909
RightShoulder  0.776537 -1.41814 35.0827
RightArm  -18.0372 5.49437 40.8762
RightForeArm  65.0341 -1.66193 7.74449
RightHand  -0.127993 -4.47794 -14.6416
LeftUpLeg  -17.3401 0.951386 -4.77129
LeftLeg  27.4325 2.78275 1.94327
LeftFoot  -15.7924 0.0991586 0.113652
LeftToes  1.09107e-011 -1.16422e-010 2.98337e-011
666
root  -42.3191 38.2503 -24.7234 7.30096 0.0200653 2.87714
RightUpLeg  -30.557 -4.17372 -5.64665
RightLeg  60.7058 -6.55962 -12.9331
RightFoot  -10.5974 -0.129102 8.75969
RightToes  -1.33073e-015 0 -3.6325e-017
Spine  -2.02651 -3.56252 -19.8272
Spine1  8.52615 -6.19791 10.3005
HEad  8.95548 5.64814 24.6618
LeftShoulder1  2.23626 -10.0988 -9.56441
LeftArm  5.36709 3.57707 -68.2856
LeftForeArm  44.0279 -1.41203 -14.1691
LeftHand  0.0231253 6.21215 6.87488
RightShoulder  0.854675 -1.20347 34.625
RightArm  -17.4312 6.58681 36.6697
RightForeArm  68.3271 -0.814297 8.00049
RightHand  -0.0561485 -5.06525 -14.9534
LeftUpLeg  -17.2251 1.38964 -4.26951
LeftLeg  29.1325 1.76768 1.44871
LeftFoot  -17.9733 0.153329 0.784987
LeftToes  1.09107e-011 -1.16422e-010 2.98337e-011
667
root  -42.3405 38.2454 -23.2459 8.5282 -0.253006 2.13989
RightUpLeg  -33.7107 -4.47486 -5.62349
RightLeg  57.6136 -6.56665 -11.4397
RightFoot  -11.5745 -0.0633009 7.55652
RightToes  -1.33073e-015 0 -3.6325e-017
Spine  -1.79242 -4.52823 -20.8
Spine1  8.8263 -8.08935 13.9722
HEad  6.33984 4.79554 27.9512
LeftShoulder1  2.09485 -11.7182 -6.48896
LeftArm  11.8161 1.0713 -71.4946
LeftForeArm  45.7722 -4.08946 -14.2013
LeftHand  0.0912253 7.21651 7.62577
RightShoulder  0.716369 -1.52691 34.1962
RightArm  -14.596 7.77836 31.8456
RightForeArm  69.2027 3.09173 9.72855
RightHand  0.0894084 -6.20139 -15.2052
LeftUpLeg  -15.6797 2.10339 -3.41658
LeftLeg  28.5358 1.49344 1.26098
LeftFoot  -19.7125 0.15692 0.527853
LeftToes  1.09107e-011 -1.16422e-010 2.98337e-011
668
root  -42.2389 38.4922 -21.6076 9.66045 -2.39021 1.30293
RightUpLeg  -35.8863 -3.96441 -4.95304
RightLeg  52.4596 -6.58543 -9.46561
RightFoot  -12.236 -0.0311541 6.65001
RightToes  -1.33073e-015 0 -3.6325e-017
Spine  -2.15009 -5.22107 -19.4678
Spine1  8.92121 -9.23048 16.1087
HEad  5.98254 4.35231 27.6972
LeftShoulder1  2.02868 -12.2369 -5.48351
LeftArm  13.7181 1.13471 -72.3363
LeftForeArm  43.6837 -7.42659 -13.1389
LeftHand  0.107501 7.31435 8.19358
RightShoulder  0.625539 -1.6965 32.7447
RightArm  -6.74338 9.28958 28.0871
RightForeArm  62.0289 8.21596 11.0015
RightHand  0.148973 -6.60405 -15.8608
LeftUpLeg  -12.4381 2.62674 -2.9358
LeftLeg  25.2689 2.80142 1.82511
LeftFoot  -19.6676 0.0447656 -1.00573
LeftToes  1.09107e-011 -1.16422e-010 2.98337e-011
669
root  -42.1325 38.9431 -19.8868 11.051 -5.71121 0.744995
RightUpLeg  -37.3433 -2.72294 -3.77592
RightLeg  45.1796 -5.79491 -6.50779
RightFoot  -11.5717 -0.0653135 6.62068
RightToes  -1.33073e-015 0 -3.6325e-017
Spine  -2.31273 -5.82241 -17.4247
Spine1  8.1161 -9.92759 17.4399
HEad  7.57257 4.56297 25.6294
LeftShoulder1  1.84247 -11.8462 -4.4779
LeftArm  13.0906 2.90438 -73.0524
LeftForeArm  40.7889 -9.77728 -11.9654
LeftHand  0.12295 7.22595 9.42874
RightShoulder  0.684154 -1.43553 30.4472
RightArm  6.97601 10.5283 26.3032
RightForeArm  47.811 14.6772 9.1671
RightHand  0.0987938 -6.22012 -16.0381
LeftUpLeg  -9.15801 4.03212 -2.8811
LeftLeg  21.2744 4.15648 1.86826
LeftFoot  -16.6283 -0.0545083 -3.33839
LeftToes  1.09107e-011 -1.16422e-010 2.98337e-011
670
root  -42.0586 39.4438 -18.1091 12.628 -9.29132 0.732452
RightUpLeg  -38.2176 -1.91095 -2.23913
RightLeg  36.9301 -2.98444 -2.65914
RightFoot  -10.1579 -0.151113 7.92719
RightToes  -1.33073e-015 0 -3.6325e-017
Spine  -3.10594 -6.45142 -15.4134
Spine1  8.27339 -10.6639 18.3129
HEad  8.75528 5.03948 22.8324
LeftShoulder1  1.67188 -11.87 -3.1846
LeftArm  9.87285 5.23649 -73.9797
LeftForeArm  40.2647 -11.1351 -10.9201
LeftHand  0.105395 6.92825 9.80617
RightShoulder  0.702277 -1.27766 28.4483
RightArm  21.4891 12.1158 25.2099
RightForeArm  31.2539 21.4008 4.54552
RightHand  0.0465652 -5.88567 -14.7905
LeftUpLeg  -6.13582 4.72191 -3.2243
LeftLeg  17.0604 6.06986 1.09055
LeftFoot  -11.6852 0.0515436 -6.13503
LeftToes  1.09107e-011 -1.16422e-010 2.98337e-011
671
root  -42.0337 39.7924 -16.2985 14.3541 -12.5897 0.911057
RightUpLeg  -38.437 -1.33914 -0.211524
RightLeg  28.942 0.947095 0.342718
RightFoot  -9.6849 -0.239877 11.983
RightToes  -1.33073e-015 0 -3.6325e-017
Spine  -3.8674 -7.14612 -13.4773
Spine1  8.56574 -11.5459 19.1296
HEad  9.07784 5.99933 18.4664
LeftShoulder1  1.55294 -12.427 -1.88318
LeftArm  5.70291 7.32366 -75.095
LeftForeArm  40.9332 -11.1409 -10.5306
LeftHand  0.0729251 6.54048 9.70647
RightShoulder  0.648941 -1.33779 26.7031
RightArm  24.8332 15.0578 23.9016
RightForeArm  28.0157 26.3866 4.16973
RightHand  0.0485909 -5.97333 -13.3396
LeftUpLeg  -4.43045 4.09927 -4.18888
LeftLeg  14.7327 8.42842 1.1081
LeftFoot  -6.52676 0.478037 -10.4211
LeftToes  1.09107e-011 -1.16422e-010 2.98337e-011
672
root  -42.0773 39.8927 -14.4569 15.5586 -15.259 1.33426
RightUpLeg  -37.8404 -2.29571 2.41274
RightLeg  23.2728 4.94323 2.11831
RightFoot  -10.7095 -0.166313 16.7729
RightToes  -1.33073e-015 0 -3.6325e-017
Spine  -4.12242 -7.9387 -11.8921
Spine1  9.0723 -12.743 20.083
HEad  8.23388 7.36879 12.5809
LeftShoulder1  1.48908 -13.0957 -0.981469
LeftArm  3.49158 9.09166 -75.9327
LeftForeArm  39.4984 -11.155 -10.3859
LeftHand  0.0284342 6.04554 8.98579
RightShoulder  0.68299 -1.14292 25.2639
RightArm  24.2495 18.2745 22.7319
RightForeArm  29.5813 31.1025 5.15003
RightHand  0.0269105 -5.87095 -11.3846
LeftUpLeg  -3.90394 5.7324 -4.9376
LeftLeg  15.6824 7.54372 0.600445
LeftFoot  -2.40318 1.10865 -13.9455
LeftToes  1.09107e-011 -1.16422e-010 2.98337e-011
673
root  -42.1855 39.7415 -12.661 16.1855 -17.6749 2.25235
RightUpLeg  -37.4776 -1.80475 4.12054
RightLeg  21.9202 4.14032 1.6234
RightFoot  -11.9911 0.0136119 16.7414
RightToes  -1.33073e-015 0 -3.6325e-017
Spine  -3.71044 -8.66783 -10.9861
Spine1  9.82913 -14.126 21.1399
HEad  6.53485 8.82866 5.68449
LeftShoulder1  1.54818 -13.7593 -0.97149
LeftArm  5.30176 11.307 -75.7887
LeftForeArm  34.9235 -12.9787 -9.64178
LeftHand  -0.0191283 5.41577 7.99248
RightShoulder  0.660514 -1.18215 24.7512
RightArm  23.858 22.7517 22.4887
RightForeArm  30.2421 33.8798 5.79
RightHand  -0.0104984 -5.51428 -9.60549
LeftUpLeg  -4.47378 13.023 -5.93542
LeftLeg  19.5533 -0.124887 -0.236384
LeftFoot  0.653408 1.82024 -17.2539
LeftToes  1.09107e-011 -1.16422e-010 2.98337e-011
674
root  -42.3719 39.1942 -10.8693 16.1872 -20.0313 3.54842
RightUpLeg  -37.1022 1.20383 4.24624
RightLeg  24.5496 -1.68293 -1.05738
RightFoot  -14.3512 0.277722 14.2285
RightToes  -1.33073e-015 0 -3.6325e-017
Spine  -3.07248 -9.35999 -10.35
Spine1  10.8484 -15.2467 21.1562
HEad  3.84428 9.97288 -1.69813
LeftShoulder1  1.70141 -14.5053 -1.51398
LeftArm  10.6062 14.223 -74.7306
LeftForeArm  27.5502 -16.6051 -7.686
LeftHand  -0.0587549 4.75084 7.25358
RightShoulder  0.522559 -1.66159 25.3543
RightArm  22.9223 27.9354 24.1739
RightForeArm  30.2532 34.2422 5.88097
RightHand  -0.035366 -5.18513 -8.31997
LeftUpLeg  -6.07744 16.5832 -6.30617
LeftLeg  27.2702 -5.96783 -2.986
LeftFoot  2.30521 2.47583 -20.6135
LeftToes  1.09107e-011 -1.16422e-010 2.98337e-011
675
root  -42.6001 38.17 -9.10872 15.475 -22.038 5.38219
RightUpLeg  -36.1761 2.52727 4.03197
RightLeg  29.0951 -5.16105 -3.33121
RightFoot  -16.2735 0.365497 11.0266
RightToes  -1.33073e-015 0 -3.6325e-017
Spine  -1.82279 -9.77093 -9.91244
Spine1  11.2474 -15.7369 20.4148
HEad  0.203067 9.89429 -7.50833
LeftShoulder1  1.87309 -15.2474 -2.12676
LeftArm  17.3399 16.5165 -73.019
LeftForeArm  20.354 -19.9007 -5.63784
LeftHand  -0.0974291 3.99869 6.80367
RightShoulder  0.50585 -1.7502 26.1091
RightArm  21.0871 31.3129 26.3774
RightForeArm  29.8996 33.8679 5.80664
RightHand  -0.054897 -4.90085 -8.42131
LeftUpLeg  -8.30875 16.584 -6.46864
LeftLeg  37.8061 -10.5429 -8.29954
LeftFoot  2.21628 2.67368 -22.354
LeftToes  1.09107e-011 -1.16422e-010 2.98337e-011
676
root  -42.9448 37.2551 -7.50772 15.0053 -23.3315 5.92043
RightUpLeg  -37.2433 6.93757 4.26952
RightLeg  36.8944 -10.9939 -8.99164
RightFoot  -17.1891 -0.432162 -6.18112
RightToes  -1.33073e-015 0 -3.6325e-017
Spine  -0.381188 -9.46193 -8.13884
Spine1  12.4454 -15.8141 19.932
HEad  -3.68114 8.61194 -11.3204
LeftShoulder1  2.09475 -16.248 -2.82014
LeftArm  21.1373 17.4982 -70.7947
LeftForeArm  19.1922 -22.1871 -4.33866
LeftHand  -0.105728 3.7062 6.25471
RightShoulder  0.485273 -1.87131 27.4563
RightArm  17.9495 33.0847 28.6413
RightForeArm  30.6286 33.0242 5.55503
RightHand  -0.0710865 -4.75232 -9.71576
LeftUpLeg  -10.5163 15.7325 -4.38585
LeftLeg  47.6566 -10.9043 -12.1498
LeftFoot  -1.91115 1.80906 -21.5692
LeftToes  1.09107e-011 -1.16422e-010 2.98337e-011
677
root  -43.3639 36.0499 -5.91767 12.999 -26.3438 7.39619
RightUpLeg  -38.3661 6.55938 3.1896
RightLeg  47.7127 -7.5906 -9.16641
RightFoot  -24.0164 -0.725261 -5.06241
RightToes  -1.33073e-015 0 -3.6325e-017
Spine  1.59109 -8.48181 -9.20367
Spine1  13.2492 -14.4112 17.6161
HEad  -8.62115 8.59321 -13.6595
LeftShoulder1  2.60665 -17.2389 -5.04318
LeftArm  16.9276 17.9974 -66.6147
LeftForeArm  24.5978 -25.0188 -4.05666
LeftHand  -0.0882392 3.85506 5.4354
RightShoulder  0.873638 -0.893579 30.1542
RightArm  15.2033 35.9819 31.667
RightForeArm  31.654 29.312 4.62292
RightHand  -0.116886 -4.43263 -12.4245
LeftUpLeg  -12.4685 16.0307 -2.50256
LeftLeg  56.8366 -6.92229 -10.7472
LeftFoot  -7.90817 0.60672 -18.5318
LeftToes  1.09107e-011 -1.16422e-010 2.98337e-011
678
root  -43.9665 35.5744 -4.29149 12.0971 -28.9771 7.13074
RightUpLeg  -35.5383 6.96546 3.63317
RightLeg  50.7496 -6.22012 -8.45086
RightFoot  -28.4355 -0.942802 -4.98565
RightToes  -1.33073e-015 0 -3.6325e-017
Spine  2.5107 -8.28833 -8.11866
Spine1  15.8253 -13.7746 14.2365
HEad  -10.7843 11.7782 -15.1734
LeftShoulder1  3.15737 -17.2171 -8.07014
LeftArm  14.2108 18.0865 -61.1178
LeftForeArm  25.0464 -25.8676 -4.21479
LeftHand  -0.083597 4.21178 6.55559
RightShoulder  1.39522 0.362539 32.1082
RightArm  9.91269 38.3442 39.6892
RightForeArm  37.3677 19.7976 5.36378
RightHand  -0.105181 -4.73819 -16.5589
LeftUpLeg  -15.3246 14.0032 0.609339
LeftLeg  61.423 -3.08449 -5.51958
LeftFoot  -10.2835 0.197278 -14.658
LeftToes  1.09107e-011 -1.16422e-010 2.98337e-011
